# xmcd CD database file
#
# Track frame offsets:
#	150
#	12139
#	48975
#	79972
#	105475
#	145847
#
# Disc length: 2197 seconds
#
# Revision: 0
# Processed by: cddbd v1.5.2PL0 Copyright (c) Steve Scherf et al.
# Submitted via: CDex 1.51
#
DISCID=42089306
DTITLE=Pagan Altar - The Time Lord
DYEAR=2004
DGENRE=Doom Metal
TTITLE0=Highway Cavalier
TTITLE1=The Time Lord
TTITLE2=Judgement Of The Dead
TTITLE3=The Black Mass
TTITLE4=Reincarnation
TTITLE5=Night Rider
EXTD=YEAR: 2004
EXTT0=
EXTT1=
EXTT2=
EXTT3=
EXTT4=
EXTT5=
PLAYORDER=
